<svg width="165" height="37" viewBox="0 0 165 37" fill="none" xmlns="http://www.w3.org/2000/svg">
<path fill-rule="evenodd" clip-rule="evenodd" d="M157.991 2.70654L164.884 2.74372C164.884 2.74372 152.069 19.7888 151.023 21.178C150.683 21.6279 150.166 22.113 149.905 22.7144C149.243 24.2262 148.563 27.5424 148.563 27.5424L142.256 27.5731C142.256 27.5731 143.238 24.1166 143.197 22.2754C143.162 20.6668 142.325 19.0605 141.856 17.4473C141.382 15.8146 140.738 12.6192 140.738 12.6192H147.222L148.116 16.1306L157.991 2.70654Z" fill="white"/>
<path fill-rule="evenodd" clip-rule="evenodd" d="M144.939 6.30113C146.211 7.05397 146.992 11.206 146.992 11.206C146.992 11.206 140.336 11.3024 136.714 11.3024H133.584L129.783 27.5423H123.97C123.97 27.5423 127.587 9.89368 128.442 6.69397C128.719 5.65827 130.337 5.8358 133.072 5.8358H137.438C140.258 5.8358 143.553 5.48261 144.939 6.30113Z" fill="white"/>
<path fill-rule="evenodd" clip-rule="evenodd" d="M117.878 14.2105C117.878 14.2105 118.059 13.168 117.263 11.961C116.583 10.9318 115.955 10.6926 114.167 10.6378C109.116 10.482 109.214 14.1557 109.214 14.1557L117.878 14.2105ZM123.355 10.0036C124.095 12.624 122.685 18.7818 122.685 18.7818C122.685 18.7818 115.318 18.661 111.282 18.7818C110.028 18.8193 108.526 18.6479 108.152 19.2208C107.627 20.0238 108.344 21.2596 108.952 21.7817C109.653 22.383 111.016 22.4512 111.506 22.5125C114.781 22.9208 121.636 22.6178 121.636 22.6178L120.449 27.7793C120.449 27.7793 110.762 28.2558 105.916 27.1209C104.96 26.8972 104.063 26.4452 103.457 25.8042C103.292 25.6289 103.148 25.3897 102.992 25.1834C102.867 25.0186 102.503 24.4767 102.339 24.0485C101.233 21.154 102.469 15.6084 103.681 12.637C103.821 12.2925 103.998 11.856 104.184 11.4848C104.416 11.022 104.613 10.4996 104.799 10.223C104.924 10.0321 105.078 9.90914 105.208 9.72914C105.358 9.5163 105.532 9.30997 105.693 9.12594C106.14 8.61661 106.647 8.25662 107.258 7.80925C109.277 6.32557 112.93 5.17339 117.319 5.61456C118.971 5.78124 121.466 6.36058 122.685 8.0286C123.011 8.4741 123.172 9.3583 123.355 10.0036Z" fill="white"/>
<path fill-rule="evenodd" clip-rule="evenodd" d="M96.6938 5.81604L102.33 5.7832C102.33 5.7832 99.1892 20.4099 97.5883 27.5424H91.1045C86.5727 27.5424 82.5372 28.0932 80.8202 24.9087C79.1546 21.8168 80.7441 16.7319 81.4909 13.2775C82.0186 10.8328 83.1299 5.83587 83.1299 5.83587L88.9696 5.7832C88.9696 5.7832 87.3195 13.5628 86.633 17.4472C86.3871 18.8386 85.8799 20.1488 86.4095 21.178C86.9127 22.157 87.6168 22.227 89.7631 22.2753C90.4429 22.2908 92.6696 22.2753 92.6696 22.2753L96.6938 5.81604Z" fill="white"/>
<path fill-rule="evenodd" clip-rule="evenodd" d="M70.3122 16.3499C70.9024 14.2915 71.7631 12.0596 71.6536 10.2051C71.5352 8.22139 69.8407 6.4152 68.7473 6.03568C65.4541 4.89434 62.3711 6.48986 61.1459 7.79106C59.5605 9.47674 59.0239 11.4453 58.4627 14.1555C58.0448 16.1677 57.7027 18.2921 58.4627 19.8612C59.8086 22.6353 64.0051 22.0296 68.5236 22.0559C69.1943 20.2916 69.7488 18.3097 70.3122 16.3499ZM78.1375 8.23006C78.7813 12.8255 76.3109 17.8974 74.6094 22.3081C76.3444 22.4618 77.8648 22.2843 77.9743 22.4113C78.0882 22.5761 76.8115 27.6762 76.3665 27.6892C74.9894 27.7245 70.4265 27.7617 68.5236 27.7617C62.3149 27.7617 56.5065 28.1589 53.5444 25.1283C52.3415 23.8971 51.5099 21.7858 51.3085 20.3002C50.973 17.8202 51.3934 15.0902 51.9792 12.8388C52.5091 10.8064 53.1887 8.88841 54.2151 7.13272C56.824 2.66247 61.3627 -0.655588 68.9708 0.110262C70.4463 0.25959 72.5657 0.89377 73.8895 1.6463C73.981 1.69928 74.301 1.94929 74.3746 1.99328C76.1632 3.11046 77.7931 5.77668 78.1375 8.23006Z" fill="white"/>
<path fill-rule="evenodd" clip-rule="evenodd" d="M50.6668 5.8425C50.2912 7.52135 49.9156 9.42421 49.5198 11.0832H43.2597C43.7448 9.24421 44.116 7.41602 44.6011 5.81616C46.6044 5.81616 48.4669 5.8425 50.6668 5.8425Z" fill="white"/>
<path fill-rule="evenodd" clip-rule="evenodd" d="M43.0362 12.6194H49.0725C48.2835 16.9078 46.7208 23.8249 45.4956 28.6396C44.7286 31.6528 44.2167 33.8519 42.1417 35.4428C41.9562 35.5856 41.8492 35.5177 41.6948 35.6624C41.3123 36.0202 39.5439 36.4351 38.5648 36.5401C36.9728 36.7093 35.1731 36.5621 33.2169 36.5227C33.7288 34.6859 34.308 32.4804 34.764 30.8343C39.5328 31.4007 39.6537 26.9763 40.5769 22.7145C41.1112 20.2522 42.7301 13.6071 43.0362 12.6194Z" fill="white"/>
<path fill-rule="evenodd" clip-rule="evenodd" d="M28.9509 23.8116L28.8215 24.1406C26.6169 28.354 22.7111 30.9394 17.1397 31.0534C14.5351 31.1061 12.0534 30.4502 10.4324 29.7367C6.93366 28.1939 3.9911 25.3325 2.38394 22.2753C0.0786289 17.8927 -0.337048 11.7963 4.45633 7.24268C4.53019 7.24268 3.87495 8.23004 3.94881 8.23004L3.81688 8.65138C0.36269 19.2664 11.0046 28.363 21.3495 27.3227C23.8356 27.0727 27.0061 25.7361 28.9509 23.8116Z" fill="#362727"/>
<path fill-rule="evenodd" clip-rule="evenodd" d="M22.6908 19.4223C25.2935 19.44 28.0119 18.246 29.6216 16.5696C28.2133 20.0788 24.1354 22.3345 18.6666 21.617C14.0879 21.0157 9.72594 16.4928 9.2765 11.9609C8.94793 8.66263 10.1192 6.6941 12.0489 4.3064C11.3782 5.55524 11.1276 6.51844 11.0651 7.13279C10.3319 14.2674 16.8713 19.3851 22.6908 19.4223Z" fill="#362727"/>
<path fill-rule="evenodd" clip-rule="evenodd" d="M29.3603 10.5607C28.9557 11.4716 26.626 13.1919 25.5974 13.407C21.524 14.2586 18.915 12.3626 17.5487 10.2051C17.3454 9.88256 16.9699 9.0027 16.9026 8.77871C16.3727 7.01001 16.6164 4.3348 18.1973 2.94995C17.721 4.26664 17.6516 5.79617 17.9022 6.79035C18.054 7.39169 18.5167 8.44102 18.9797 9.10122C19.8225 10.3039 20.3568 10.5961 21.4391 11.2346C21.9264 11.5221 22.4494 11.7526 22.6754 11.8161C23.7015 12.1123 25.8679 12.8936 29.3603 10.5607Z" fill="#362727"/>
</svg>
