<svg width="67" height="65" viewBox="0 0 67 65" fill="none" xmlns="http://www.w3.org/2000/svg">
<path d="M0.536194 0H66.756V65H0.536194V0Z" fill="#F7DF1E"/>
<path d="M17.9478 54.3188L23.0154 51.3084C23.993 53.0099 24.8824 54.4495 27.0156 54.4495C29.0604 54.4495 30.3496 53.6643 30.3496 50.6104V29.8413H36.5726V50.6967C36.5726 57.0234 32.7945 59.9031 27.2824 59.9031C22.3042 59.9031 19.4145 57.3723 17.9477 54.3183" fill="white"/>
<path d="M39.9528 53.6641L45.0197 50.7844C46.3536 52.9226 48.0872 54.4932 51.1541 54.4932C53.7326 54.4932 55.3768 53.2278 55.3768 51.4825C55.3768 49.3881 53.6878 48.6463 50.8429 47.425L49.2876 46.7701C44.7977 44.8943 41.8194 42.5382 41.8194 37.564C41.8194 32.9826 45.3754 29.4919 50.932 29.4919C54.8882 29.4919 57.733 30.8447 59.7775 34.3789L54.9323 37.433C53.8654 35.557 52.7101 34.8153 50.9321 34.8153C49.1096 34.8153 47.9538 35.9497 47.9538 37.433C47.9538 39.2656 49.1096 40.0075 51.7764 41.142L53.332 41.7964C58.6217 44.0218 61.6 46.2904 61.6 51.3952C61.6 56.8932 57.1995 59.9035 51.2876 59.9035C45.509 59.9035 41.7751 57.1984 39.9529 53.6641" fill="white"/>
</svg>
