<svg width="73" height="65" viewBox="0 0 73 65" fill="none" xmlns="http://www.w3.org/2000/svg">
<path d="M50.5813 45.2157C53.2753 44.9553 55.319 42.7857 55.2261 40.1821C55.1332 37.5785 52.8108 35.4956 50.0239 35.4956H49.8381C46.9584 35.5824 44.7289 37.8389 44.8218 40.5292C44.9147 41.831 45.472 42.9592 46.3081 43.7403C43.1496 49.555 38.3191 53.8075 31.0732 57.3658C26.1498 59.7958 21.0405 60.6637 15.9312 60.0562C11.7509 59.5354 8.49959 57.7997 6.45589 54.9358C3.48323 50.6832 3.20455 46.0836 5.71273 41.4839C7.47774 38.186 10.2646 35.756 12.0296 34.541C11.658 33.4127 11.1007 31.5034 10.822 30.1149C-2.64787 39.2274 -1.25444 51.5511 2.83296 57.3658C5.89852 61.7051 12.1225 64.3955 18.9968 64.3955C20.8547 64.3955 22.7126 64.2219 24.5705 63.788C36.4612 61.6183 45.472 55.0226 50.5813 45.2157ZM66.9309 34.4542C59.8708 26.7302 49.4665 22.4777 37.5759 22.4777H36.0896C35.2535 20.9155 33.4885 19.8741 31.5377 19.8741H31.3519C28.4721 19.9609 26.2426 22.2173 26.3355 24.9077C26.4284 27.5113 28.7508 29.5941 31.5377 29.5941H31.7235C33.7672 29.5074 35.5322 28.2924 36.2754 26.6434H37.9475C45.0076 26.6434 51.696 28.5527 57.7342 32.2845C62.379 35.1485 65.7233 38.8803 67.5812 43.3932C69.1604 47.0382 69.0675 50.5964 67.3954 53.634C64.7943 58.2336 60.4282 60.7505 54.6687 60.7505C50.9529 60.7505 47.4228 59.709 45.5649 58.9279C44.5431 59.7958 42.6852 61.1844 41.3846 62.0522C45.3791 63.788 49.4665 64.7426 53.3682 64.7426C62.2861 64.7426 68.8817 60.1429 71.3899 55.5433C74.0839 50.5097 73.8981 41.831 66.9309 34.4542ZM19.74 46.6911C19.8329 49.2947 22.1552 51.3775 24.9421 51.3775H25.1279C28.0077 51.2907 30.2372 49.0343 30.1443 46.3439C30.0514 43.7403 27.729 41.6575 24.9421 41.6575H24.7563C24.5705 41.6575 24.2918 41.6575 24.1061 41.7442C20.2973 35.8428 18.7181 29.4206 19.2755 22.4777C19.6471 17.2705 21.505 12.7576 24.7563 9.02578C27.4503 5.81469 32.6524 4.25253 36.1825 4.16575C46.0294 3.99217 50.2097 15.448 50.4884 20.0476C51.696 20.308 53.7397 20.9155 55.1332 21.3494C54.0184 7.29005 44.7289 0 35.8109 0C27.4503 0 19.74 5.64111 16.6744 13.9726C12.4012 25.0813 15.1881 35.756 20.3902 44.1743C19.9257 44.7818 19.6471 45.7364 19.74 46.6911Z" fill="#764ABC"/>
</svg>
