<svg width="53" height="65" viewBox="0 0 53 65" fill="none" xmlns="http://www.w3.org/2000/svg">
<path d="M26.3408 65L5.12257 59.7793L0.394104 12.7742H52.3512L47.6177 59.7722L26.3408 65Z" fill="#4353AD"/>
<path d="M43.5654 56.7794L47.61 16.6177H26.3725V61.0039L43.5654 56.7794" fill="#485FB5"/>
<path d="M26.3726 49.0235L26.344 49.03L19.1001 47.2964L18.637 42.6987H12.1075L13.0187 51.7505L26.3426 55.0288L26.3726 55.0215V49.0235ZM10.0625 22.3827L10.6538 28.1476H26.3726V22.3827H10.0625ZM11.2339 34.051L11.8168 39.816H26.3726V34.051H11.2339" fill="#EDEDED"/>
<path d="M31.5292 6.34491e-05H39.4073V2.53905H34.8239V3.04709H39.4073V8.88672H31.5292V6.22052H36.1129V5.71288H31.5295V6.34491e-05H31.5292ZM22.0755 6.34491e-05H29.9534V2.53905H25.3701V3.04709H29.9534V8.88672H22.0758V6.22052H26.6593V5.71288H22.0754V6.34491e-05H22.0755ZM12.622 6.34491e-05H20.4998V2.91988H15.9165V5.84009H20.5002V8.75991H12.622V6.34491e-05Z" fill="white"/>
<path d="M41.4697 34.0512L42.6438 22.3829H26.3502V28.1477H35.5156L34.9238 34.0512H26.3502V39.8162H34.3598L33.6043 47.2932L26.35 49.0284V55.0261L39.6844 51.7507L39.7821 50.7769L41.311 35.5992L41.4697 34.0512Z" fill="white"/>
</svg>
