<svg width="50" height="65" viewBox="0 0 50 65" fill="none" xmlns="http://www.w3.org/2000/svg">
<path d="M5.30811 59.7793L0.85791 12.774H49.7587L45.3036 59.7719L25.2783 65L5.30811 59.7793Z" fill="#E53D20"/>
<path d="M25.3083 61.0039L41.4898 56.7793L45.2969 16.6174H25.3083V61.0039Z" fill="#F15123"/>
<path d="M25.3083 34.0511H17.2075L16.648 28.1476H25.3083V22.3825H25.2871H9.95747L10.1041 23.9292L11.6087 39.8159H25.3083V34.0511Z" fill="#EDEDED"/>
<path d="M25.3083 49.0232L25.2815 49.03L18.4636 47.2962L18.0276 42.6984H14.7147H11.8822L12.7399 51.7503L25.2801 55.0286L25.3083 55.0212V49.0232Z" fill="#EDEDED"/>
<path d="M5.40758 4.1388e-05H8.5187V2.89456H11.3645V4.1388e-05H14.4758V8.76538H11.3646V5.83029H8.51883V8.76538H5.4078V4.1388e-05H5.40758Z" fill="white"/>
<path d="M18.5669 2.90678H15.828V4.1388e-05H24.4182V2.90678H21.6781V8.76538H18.5671V2.90678H18.5669Z" fill="white"/>
<path d="M25.7816 4.1388e-05H29.0256L31.021 3.0799L33.0145 4.1388e-05H36.2597V8.76538H33.1614V4.42079L31.021 7.53739H30.9676L28.8257 4.42079V8.76538H25.7816V4.1388e-05Z" fill="white"/>
<path d="M37.808 4.1388e-05H40.9201V5.8681H45.2951V8.76538H37.808V4.1388e-05Z" fill="white"/>
<path d="M25.2871 34.0511V39.8159H32.8255L32.1149 47.2927L25.2871 49.0282V55.0259L37.8372 51.7504L37.9293 50.7765L39.3679 35.5991L39.5173 34.0511H37.8676H25.2871Z" fill="white"/>
<path d="M25.2871 22.3827V28.1477H40.0547H40.0743L40.1971 26.8518L40.476 23.9293L40.6224 22.3827H25.2871" fill="white"/>
</svg>
